<mxfile host="app.diagrams.net" agent="Mozilla/5.0 (Windows NT 10.0; Win64; x64) AppleWebKit/537.36 (KHTML, like Gecko) Chrome/138.0.0.0 Safari/537.36" version="27.1.6">
  <diagram name="Página-1" id="dEYnBzAFU3frqEjCNJSm">
    <mxGraphModel grid="1" page="1" gridSize="10" guides="1" tooltips="1" connect="1" arrows="1" fold="1" pageScale="1" pageWidth="827" pageHeight="1169" math="0" shadow="0">
      <root>
        <mxCell id="0" />
        <mxCell id="1" parent="0" />
        <mxCell id="_t-lmhzWF2DVQkJBDF2q-1" value="CU036 Cerrar sesión" style="swimlane;childLayout=stackLayout;resizeParent=1;resizeParentMax=0;startSize=20;horizontal=0;horizontalStack=1;" vertex="1" parent="1">
          <mxGeometry x="250" y="180" width="790" height="480" as="geometry">
            <mxRectangle x="200" y="80" width="40" height="50" as="alternateBounds" />
          </mxGeometry>
        </mxCell>
        <mxCell id="_t-lmhzWF2DVQkJBDF2q-3" value="Usuario" style="swimlane;startSize=20;" vertex="1" parent="_t-lmhzWF2DVQkJBDF2q-1">
          <mxGeometry x="20" width="320" height="480" as="geometry" />
        </mxCell>
        <mxCell id="_t-lmhzWF2DVQkJBDF2q-5" value="" style="ellipse;html=1;shape=startState;fillColor=#000000;strokeColor=#ff0000;fillStyle=auto;" vertex="1" parent="_t-lmhzWF2DVQkJBDF2q-3">
          <mxGeometry x="180" y="30" width="30" height="30" as="geometry" />
        </mxCell>
        <mxCell id="_t-lmhzWF2DVQkJBDF2q-6" value="&lt;font style=&quot;vertical-align: inherit;&quot;&gt;&lt;font style=&quot;vertical-align: inherit;&quot;&gt;Pulsar el icono &quot;Perfil&quot;&lt;/font&gt;&lt;/font&gt;" style="rounded=1;whiteSpace=wrap;html=1;arcSize=40;fontColor=#000000;fillColor=#ffffc0;strokeColor=#ff0000;" vertex="1" parent="_t-lmhzWF2DVQkJBDF2q-3">
          <mxGeometry x="135" y="100" width="120" height="50" as="geometry" />
        </mxCell>
        <mxCell id="_t-lmhzWF2DVQkJBDF2q-4" style="edgeStyle=orthogonalEdgeStyle;rounded=0;orthogonalLoop=1;jettySize=auto;html=1;exitX=0.5;exitY=1;exitDx=0;exitDy=0;entryX=0.5;entryY=0;entryDx=0;entryDy=0;" edge="1" parent="_t-lmhzWF2DVQkJBDF2q-3" source="_t-lmhzWF2DVQkJBDF2q-5" target="_t-lmhzWF2DVQkJBDF2q-6">
          <mxGeometry relative="1" as="geometry" />
        </mxCell>
        <mxCell id="mkRodhgZDedfLx4SuHos-1" value="&lt;font style=&quot;vertical-align: inherit;&quot;&gt;&lt;font style=&quot;vertical-align: inherit;&quot;&gt;Pulsar el botón &quot;Cerrar sesión&quot;&amp;nbsp;&lt;/font&gt;&lt;/font&gt;" style="rounded=1;whiteSpace=wrap;html=1;arcSize=40;fontColor=#000000;fillColor=#ffffc0;strokeColor=#ff0000;" vertex="1" parent="_t-lmhzWF2DVQkJBDF2q-3">
          <mxGeometry x="135" y="190" width="120" height="50" as="geometry" />
        </mxCell>
        <mxCell id="_t-lmhzWF2DVQkJBDF2q-12" value="Sistema" style="swimlane;startSize=20;" vertex="1" parent="_t-lmhzWF2DVQkJBDF2q-1">
          <mxGeometry x="340" width="450" height="480" as="geometry" />
        </mxCell>
        <mxCell id="_t-lmhzWF2DVQkJBDF2q-13" value="" style="ellipse;html=1;shape=endState;fillColor=#000000;strokeColor=#ff0000;" vertex="1" parent="_t-lmhzWF2DVQkJBDF2q-12">
          <mxGeometry x="350" y="430" width="30" height="30" as="geometry" />
        </mxCell>
        <mxCell id="_t-lmhzWF2DVQkJBDF2q-14" style="edgeStyle=orthogonalEdgeStyle;rounded=0;orthogonalLoop=1;jettySize=auto;html=1;exitX=0.5;exitY=1;exitDx=0;exitDy=0;" edge="1" parent="_t-lmhzWF2DVQkJBDF2q-12">
          <mxGeometry relative="1" as="geometry">
            <mxPoint x="86" y="510" as="sourcePoint" />
            <mxPoint x="86" y="510" as="targetPoint" />
          </mxGeometry>
        </mxCell>
        <mxCell id="_t-lmhzWF2DVQkJBDF2q-19" value="Redirigirá a la pestaña inicial sin inicio de sesión" style="rounded=1;whiteSpace=wrap;html=1;arcSize=40;fontColor=#000000;fillColor=#ffffc0;strokeColor=#ff0000;" vertex="1" parent="_t-lmhzWF2DVQkJBDF2q-12">
          <mxGeometry x="305" y="340" width="120" height="50" as="geometry" />
        </mxCell>
        <mxCell id="mkRodhgZDedfLx4SuHos-2" value="&lt;font style=&quot;vertical-align: inherit;&quot;&gt;&lt;font style=&quot;vertical-align: inherit;&quot;&gt;Mostrar opciones de perfil&lt;/font&gt;&lt;/font&gt;" style="rounded=1;whiteSpace=wrap;html=1;arcSize=40;fontColor=#000000;fillColor=#ffffc0;strokeColor=#ff0000;" vertex="1" parent="_t-lmhzWF2DVQkJBDF2q-12">
          <mxGeometry x="110" y="100" width="120" height="50" as="geometry" />
        </mxCell>
        <mxCell id="_t-lmhzWF2DVQkJBDF2q-33" style="edgeStyle=orthogonalEdgeStyle;rounded=0;orthogonalLoop=1;jettySize=auto;html=1;exitX=0.5;exitY=1;exitDx=0;exitDy=0;entryX=0.5;entryY=0;entryDx=0;entryDy=0;" edge="1" parent="_t-lmhzWF2DVQkJBDF2q-12" source="_t-lmhzWF2DVQkJBDF2q-19" target="_t-lmhzWF2DVQkJBDF2q-13">
          <mxGeometry relative="1" as="geometry">
            <mxPoint x="-125" y="500" as="sourcePoint" />
            <mxPoint x="100" y="575" as="targetPoint" />
          </mxGeometry>
        </mxCell>
        <mxCell id="mkRodhgZDedfLx4SuHos-12" style="edgeStyle=orthogonalEdgeStyle;rounded=0;orthogonalLoop=1;jettySize=auto;html=1;entryX=0.5;entryY=0;entryDx=0;entryDy=0;" edge="1" parent="_t-lmhzWF2DVQkJBDF2q-12" source="mkRodhgZDedfLx4SuHos-11" target="_t-lmhzWF2DVQkJBDF2q-19">
          <mxGeometry relative="1" as="geometry" />
        </mxCell>
        <mxCell id="mkRodhgZDedfLx4SuHos-11" value="Cerrar la sesión del usuario" style="rounded=1;whiteSpace=wrap;html=1;arcSize=40;fontColor=#000000;fillColor=#ffffc0;strokeColor=#ff0000;" vertex="1" parent="_t-lmhzWF2DVQkJBDF2q-12">
          <mxGeometry x="140" y="270" width="120" height="50" as="geometry" />
        </mxCell>
        <mxCell id="mkRodhgZDedfLx4SuHos-3" style="edgeStyle=orthogonalEdgeStyle;rounded=0;orthogonalLoop=1;jettySize=auto;html=1;entryX=0;entryY=0.5;entryDx=0;entryDy=0;" edge="1" parent="_t-lmhzWF2DVQkJBDF2q-1" source="_t-lmhzWF2DVQkJBDF2q-6" target="mkRodhgZDedfLx4SuHos-2">
          <mxGeometry relative="1" as="geometry" />
        </mxCell>
        <mxCell id="mkRodhgZDedfLx4SuHos-4" style="edgeStyle=orthogonalEdgeStyle;rounded=0;orthogonalLoop=1;jettySize=auto;html=1;entryX=1;entryY=0.5;entryDx=0;entryDy=0;" edge="1" parent="_t-lmhzWF2DVQkJBDF2q-1" source="mkRodhgZDedfLx4SuHos-2" target="mkRodhgZDedfLx4SuHos-1">
          <mxGeometry relative="1" as="geometry">
            <Array as="points">
              <mxPoint x="580" y="215" />
            </Array>
          </mxGeometry>
        </mxCell>
        <mxCell id="_t-lmhzWF2DVQkJBDF2q-30" style="edgeStyle=orthogonalEdgeStyle;rounded=0;orthogonalLoop=1;jettySize=auto;html=1;exitX=0.433;exitY=0.98;exitDx=0;exitDy=0;entryX=0;entryY=0.5;entryDx=0;entryDy=0;exitPerimeter=0;" edge="1" parent="_t-lmhzWF2DVQkJBDF2q-1" source="mkRodhgZDedfLx4SuHos-1" target="mkRodhgZDedfLx4SuHos-11">
          <mxGeometry relative="1" as="geometry">
            <mxPoint x="215" y="380" as="sourcePoint" />
            <mxPoint x="515" y="415" as="targetPoint" />
            <Array as="points">
              <mxPoint x="207" y="295" />
              <mxPoint x="457" y="295" />
            </Array>
          </mxGeometry>
        </mxCell>
      </root>
    </mxGraphModel>
  </diagram>
</mxfile>
